<?xml version="1.0" encoding="UTF-8"?>
<svg version="1.1" viewBox="0 0 1280 1280" width="1280" height="1280" xmlns="http://www.w3.org/2000/svg">
<path transform="translate(0)" d="m0 0h1280v1280h-1280z" fill="#021225"/>
<path transform="translate(0,174)" d="m0 0 14 1 24 4 25 7 25 10 23 12 18 12 17 13 16 15 13 13 11 14 9 12 10 16 11 21 10 25 7 25 4 22 2 19v480l-3 26-6 25-8 22-11 24-12 20-14 19-12 14-18 18-11 9-13 10-15 10-18 10-17 8-25 9-26 6-23 3h-7z" fill="#FBFCFB"/>
<path transform="translate(0,241)" d="m0 0 4 1 14 9 13 11 7 8 11 14 8 13 11 23 6 21 3 17 1 12v576l-3 19-6 21-8 19-8 14-10 13-4 5h-2l-1 3-17 13-14 8-5 2z" fill="#021225"/>
<path transform="translate(771,578)" d="m0 0h16l15 3 16 8 10 9 7 8 8 16 4 15 1 9v19l-2 13-5 14-7 12-11 12-11 7-12 5-10 2h-24l-16-4-13-7-12-10-9-14-5-13-3-16v-21l3-15 5-14 7-11 11-12 14-9 7-3z" fill="#F9F9F8"/>
<path transform="translate(1075,578)" d="m0 0h16l16 3 12 5 9 6 10 9 8 13 5 14 3 14v25l-4 17-5 12-7 11-9 9-11 7-9 4-14 3h-21l-14-3-12-5-13-10v-2l-3-1-7-10-5-11-4-13-1-7v-27l4-17 8-16 11-13 12-9 11-5z" fill="#F9F9F9"/>
<path transform="translate(867,582)" d="m0 0h43l18 30 28 49 4 9-1-75v-12l1-1h36l1 1v143l-1 1h-39l-7-9-17-29-10-17-12-21-7-12v88h-37z" fill="#F9F9F8"/>
<path transform="translate(588,582)" d="m0 0h60l17 4 11 6 8 7 5 8 4 13v20l-4 11-6 9-9 8 1 4 10 18 13 24 7 11v2h-42l-6-10-16-31-5-7-10-1v49h-38z" fill="#F9F9F9"/>
<path transform="translate(442,582)" d="m0 0h39l-1 58h42l1-58h38v145h-38l-1-4v-50h-41l-1 54h-37l-1-7z" fill="#F9F9F9"/>
<path transform="translate(703,373)" d="m0 0h15l20 1 33 5 22 6 19 7 20 9 21 12 15 10 13 10 13 11 21 21 11 14 11 15 9 15 8 15 7 15v2l5 1v2l-41 1-146 1 1-6 6-1h164l-6-9-8-15-14-21-10-13-12-13-15-15-14-11-12-9-19-12-20-11-25-10-23-7-14-3-24-3h-12l-6 11-2 6-5-1-1-4v-4l-1 1v7l6 7-1 3-6-4-6-8 1-4 7-8v-2h-10l-23 3-23 5-21 7-17 7-24 13-16 11-13 10-20 18-9 9-9 11-12 15-10 15-14 24-2 4h164l2 2-1 4h-152l-29-1 5-6 8-18 10-17 14-21 8-10 7-8 9-10 13-13 11-9 12-10 15-10 15-9 25-12 30-10 18-4 23-3z" fill="#F1F1F1"/>
<path transform="translate(657,255)" d="m0 0h102l10 4 6 5 5 8 8 21 7 30v6l-7-6-13-5-10-2-11-1h-82l-18 1-21 4-6 4-2 4h-2v-10l7-28 5-13 7-12 9-8z" fill="#EAEBEB"/>
<path transform="translate(381,578)" d="m0 0h14l20 4 8 4v36l-5-2-8-5-9-3-5-1h-10l-9 3-9 8-5 10-2 8-1 11v11l3 15 5 9 5 5 7 4 7 2h11l12-3 11-6 3-1v34l-3 3-16 5-7 1h-18l-15-3-12-5-11-8-7-7-7-11-5-12-3-16v-27l4-17 8-16 11-13 9-7 14-7z" fill="#F9F9F8"/>
<path transform="translate(706,328)" d="m0 0h18l34 3 27 5 24 7 19 7 24 11 20 11 16 10 19 14 15 13 16 15 7 8 12 14 13 18 10 16 6 10 11 23 7 17 6 20-1 3-5-8-1 3-8-16-10-21-12-22-10-15-12-16-12-14-9-10-13-13-11-9-12-10-19-13-24-14-23-11-27-10-23-6-22-4-17-2h-47l-26 3-27 6-24 8-19 8-19 10-17 10-16 12-13 10-12 11-6 6h-2l-2 4-12 12-9 11-11 14-10 15-12 19-15 29-7 15-3 3-4-1-2 5-1-2 7-20 8-18 11-22 13-21 9-13 14-18 9-10 1-2h2l2-4 9-9h2v-2l8-7 11-10 16-12 20-13 18-10 19-9 21-8 17-5 31-6z" fill="#F0F1F1"/>
<path transform="translate(623,938)" d="m0 0h2l6 12 12 4 19 3 23 2h49l29-3 17-4 6-3 5-11h2l-1 9-6 23-7 14-7 6-9 4h-113l-7-3-6-5-5-8-5-15-4-19z" fill="#E7E8E9"/>
<path transform="translate(777,609)" d="m0 0 9 1 9 5 7 7 5 11 2 9v24l-3 12-5 10-8 7-8 3h-14l-8-3-5-4-5-7-4-11-1-6v-26l4-13 6-10 8-6 5-2z" fill="#021225"/>
<path transform="translate(1084,609)" d="m0 0 11 2 9 6 7 10 4 13 1 10v11l-2 11-5 13-8 9-9 4h-15l-8-4-5-4-6-10-3-9-1-7v-18l3-14 4-9 7-8 10-5z" fill="#021225"/>
<path transform="translate(870,852)" d="m0 0 1 4-1 2 6-1 4-4 5-1-4 5-9 7-16 11-20 12-21 10-15 6-26 8-25 5-15 2-16 1h-22l-22-2-24-4-25-7-24-9-16-8-11-6-13-8 1-3 4-2-2-5 5 2 26 14 25 10 19 6 24 5 26 3h41l28-4 25-6 21-7 23-10 23-13 14-9z" fill="#F1F2F2"/>
<path transform="translate(967,772)" d="m0 0 1 2-10 19-10 15-9 12-9 11-11 13-7 7h-2l-1 3-8 7-13 11-11 8-18 12-23 13-23 10-27 9-26 6-23 3-11 1h-36l-21-2-23-4-26-7-22-8-23-11-16-9-20-14-16-13-10-9-14-14-9-11-14-18-12-19-11-20 1-2 6 9 11 18 9 12 13 16 13 15 11 10 11 9 13 10 13 9 21 12 23 11 22 8 18 5 25 5 20 2h49l20-2 22-4 21-6 18-6 21-9 19-10 11-7 12-8 12-9 14-12 8-7 18-18 18-22 12-17 8-14z" fill="#EAEBEC"/>
<path transform="translate(710,734)" d="m0 0h14l10 5 7 8 4 9 1 4 22 2v4l-1 1-21 1-3 10-6 8-7 6-12 3-10-1-12-6-6-8-4-8-1-4-5-1-15-1-1-4 2-1 19-1 4-9 4-6 9-8z" fill="#021225"/>
<path transform="translate(715,446)" d="m0 0h1l10 44 4 24v5l7 8 2 6v13l-4 8-7 6-7 3h-13l-8-4-7-8-3-9 1-10 5-9 5-5 3-22 8-43z" fill="#EAEBEC"/>
<path transform="translate(791,804)" d="m0 0h25l11 4 7 8 2 6v12l-4 8-5 5-8 4-5 1h-24v-47z" fill="#F1F2F2"/>
<path transform="translate(716,804)" d="m0 0h40l1 10h-30v9h25l2 1v9h-27l1 9h28v9l-1 1h-39l-1-1z" fill="#EEEFEF"/>
<path transform="translate(639,804)" d="m0 0h40v10h-29v9h19l7 1v9h-26v9h28l1 1v8l-1 1h-39z" fill="#F2F3F3"/>
<path transform="translate(940,509)" d="m0 0 4 2 1 3h2l1-2 13 27v2l5 1v2l-41 1-146 1 1-6 6-1h164l-6-9-7-13v-5z" fill="#E3E4E5"/>
<path transform="translate(488,510)" d="m0 0 1 2 3-1v3l3 1 1 5-9 15-2 4h164l2 2-1 4h-152l-29-1 5-6 8-18z" fill="#EBECED"/>
<path transform="translate(710,734)" d="m0 0h14l10 5 7 8 4 9 1 4 22 2v4l-1 1-21 1-3 10-6 8-7 6-12 3-10-1-12-6-6-8-4-8-1-4-5-1-15-1-1-4 2-1 19-1 4-9 4-6 9-8zm1 6-9 4-5 5-5 8-1 9 4 11 7 8 9 4h9l9-4 6-5 4-8 1-5v-8l-4-9-7-7-7-3z" fill="#E2E3E4"/>
<path transform="translate(568,804)" d="m0 0h38l1 1v9l-28 1v8h23l1 1v9h-24v18l-1 1h-11v-47z" fill="#F0F1F1"/>
<path transform="translate(658,263)" d="m0 0h3v45l-15 3-11 3h-4l1-9 8-24 6-9 5-5z" fill="#08172A"/>
<path transform="translate(626,612)" d="m0 0h17l8 4 4 7 1 9-2 7-5 6-6 3-16 1-1-1z" fill="#021225"/>
<path transform="translate(593,761)" d="m0 0h39l12 1-1 5-6 1h-49l-79-1-42-1-21-1v-2l58-1z" fill="#E2E4E5"/>
<path transform="translate(795,761)" d="m0 0 136 1 48 1 7 1v1l-20 1-37 1-64 1h-72v-6z" fill="#E8EAEA"/>
<path transform="translate(710,523)" d="m0 0h11l5 3 5 6 1 3v9l-4 7-7 4h-12l-5-3-5-6-1-3v-7l4-8z" fill="#E5E6E7"/>
<path transform="translate(711,740)" d="m0 0h11l8 4 8 9 2 6v8l-3 10-5 6-7 4-5 2h-9l-10-5-6-7-4-11 1-9 6-10 5-4zm2 6-8 4-6 7-1 9 3 9 7 6 9 2 9-4 5-6 2-4v-9l-3-7-5-5-5-2z" fill="#021225"/>
<path transform="translate(624,428)" d="m0 0 8 1 6 4 4 7v9l-3 6-5 4-3 1h-9l-7-4-5-8 1-10 6-7z" fill="#F4F4F4"/>
<path transform="translate(708,346)" d="m0 0h16l7 1 2 2 1 8v11h-34l-4-4-1-4v-10l5-3z" fill="#DBDCDE"/>
<path transform="translate(805,429)" d="m0 0h9l6 4 4 6v11l-4 6-4 3-3 1h-8l-8-4-4-6v-11l4-6 4-3z" fill="#F4F5F4"/>
<path transform="translate(551,483)" d="m0 0 9 1 6 4 3 4 1 9-3 7-4 4-4 2h-9l-6-3-4-5-1-2v-11l4-6z" fill="#F4F4F4"/>
<path transform="translate(876,484)" d="m0 0h10l6 3 5 6 1 8-3 7-6 5-3 1h-9l-7-4-4-7v-7l4-8z" fill="#F4F4F4"/>
<path transform="translate(711,869)" d="m0 0 9 1 6 4 3 5v11l-3 5-6 4h-11l-7-4-3-5v-11l4-6z" fill="#E5E7E7"/>
<path transform="translate(762,265)" d="m0 0 5 2 8 10 6 13 5 20v5l-23-6-1-23z" fill="#021225"/>
<path transform="translate(870,852)" d="m0 0 1 4-1 2 6-1 4-4 5-1-4 5-9 7-16 11-20 12-8 4-9-1-2-3 1-2h2v-2h3l-1-3 16-8 22-13z" fill="#8D9299"/>
<path transform="translate(967,772)" d="m0 0 1 2-10 19-10 15-9 12-9 11-11 13-7 7h-2l-1 3-8 7-13 11-11 8-11 7 2-7-4 1 3-3 16-11 13-11 11-9 21-21 18-22 12-17 8-14z" fill="#C2C7CB"/>
<path transform="translate(715,446)" d="m0 0h1l2 8-1 47-1 11 7 1 1 2-21 1v-15l9-48z" fill="#EDEEEF"/>
<path transform="translate(731,405)" d="m0 0h3l4 8 1 5v8l-3 7-5 6-8 4h-7v-25l10-8z" fill="#F2F2F2"/>
<path transform="translate(706,262)" d="m0 0h14v45h-14z" fill="#021225"/>
<path transform="translate(686,262)" d="m0 0h13v45h-14v-44z" fill="#021225"/>
<path transform="translate(97,1162)" d="m0 0 5 1 5 11 11 5-1 4-11 6-5 11h-4l-6-12-10-5v-4l11-6z" fill="#8D9299"/>
<path transform="translate(820,881)" d="m0 0h3v2h-3v2h-2l1 4 7 1v2l-21 9-27 9-4-1-3-4 5-5-13 1v-1l20-5 21-7z" fill="#CDD2D6"/>
<path transform="translate(801,814)" d="m0 0h12l8 3 3 4 1 3v7l-3 6-5 4-3 1h-13z" fill="#021225"/>
<path transform="translate(696,406)" d="m0 0 9 6 8 6v25l-8-1-6-4-6-7-2-5v-10z" fill="#F2F3F3"/>
<path transform="translate(564,865)" d="m0 0 5 2 26 14 17 7-1 2 1 4-1 3-5 2-20-9-22-13-3-2 1-3 4-2z" fill="#8D9299"/>
<path transform="translate(453,773)" d="m0 0 4 4 12 20 10 14 14 17 13 15 11 10 11 9 13 10 4 4-1 4 1 2-5-2-12-10-11-9-18-18-9-11-14-18-12-19-11-20z" fill="#C3C8CC"/>
<path transform="translate(746,263)" d="m0 0h11l1 45h-12l-1-1v-43z" fill="#021225"/>
<path transform="translate(667,262)" d="m0 0h12v46h-12z" fill="#021225"/>
<path transform="translate(727,262)" d="m0 0h12v45l-1 1-11-1z" fill="#021225"/>
<path transform="translate(450,489)" d="m0 0 1 3v2l6-1 2 2-6 10-12 23-7 16-4 4-4-1-2 5-1-2 7-20 8-18 11-22z" fill="#CBD0D4"/>
<path transform="translate(488,510)" d="m0 0 1 2 3-1v3l3 1 1 5-9 15-2 4 15 1-4 2 3 1 43 1v1h-44l-29-1 5-6 8-18z" fill="#8D9299"/>
<path transform="translate(609,889)" d="m0 0 8 1 22 7 13 3v3 3h-3l-1 3h-6l-4 1-27-9-3-3 3-1v-7z" fill="#CDD2D5"/>
<path transform="translate(713,746)" d="m0 0h7l8 4 4 6 1 4v9l-5 8-5 4-9 2-8-3-6-7-2-7 1-9 7-8zm-1 5-6 4-2 3v7h-2l1 5 4 5 5 3 9-1 5-4 2-4v-10l-4-6-3-2z" fill="#DBDDDF"/>
<path transform="translate(717,458)" d="m0 0h2l9 42 1 7v9l-4-1v-2l-9-1z" fill="#EFF0F0"/>
<path transform="translate(779,957)" d="m0 0h5l-3 10-7 13-8 5h-4v-23l6-2z" fill="#021225"/>
<path transform="translate(940,509)" d="m0 0 4 2 1 3h2l1-2 13 27v2l5 1v2h-9l-5-2-10-1v-1l8-1-6-9-7-13v-5z" fill="#8D9299"/>
<path transform="translate(631,955)" d="m0 0 11 3 9 2v25l-6-1-7-7-5-13z" fill="#021225"/>
<path transform="translate(506,482)" d="m0 0 1 4-1 1h2l1-2v2l3 1 1 6-9 12-7 12h-2l-1-3-3-3h-2l1-6z" fill="#CDD2D5"/>
<path transform="translate(992,504)" d="m0 0 2 3 8 18 5 15 3 10-1 3-5-8-1 3-8-16-8-18-1-6z" fill="#8E939A"/>
<path transform="translate(923,486)" d="m0 0h8l10 14 6 11v3h-2l-3-4-4 2v3l-3-1-12-19-2-4z" fill="#CCD1D4"/>
<path transform="translate(706,966)" d="m0 0h14v21h-14z" fill="#021225"/>
<path transform="translate(711,875)" d="m0 0h7l5 5 1 7-3 5-3 2h-8l-5-5-1-5 2-5z" fill="#021225"/>
<path transform="translate(700,347)" d="m0 0h8l-5 4h-2l1 9 4 2 26 2v-6h1l1 10h-34l-4-4-1-4v-10z" fill="#DFE1E2"/>
<path transform="translate(726,965)" d="m0 0h14v10l-1 12h-12l-1-3z" fill="#021225"/>
<path transform="translate(687,965)" d="m0 0 13 1v20l-1 1h-12z" fill="#021225"/>
<path transform="translate(669,964)" d="m0 0h11l1 1v21l-1 1h-11z" fill="#021225"/>
<path transform="translate(750,963)" d="m0 0h7v23h-12v-22z" fill="#021225"/>
<path transform="translate(973,481)" d="m0 0 4 1h3l3 3 9 17-1 4-4 3 1 5-4-4-7-14-2-7-2-6z" fill="#CBD0D4"/>
<path transform="translate(128,1156)" d="m0 0h4l4 15-1 4-3 1-15-5-1-4z" fill="#8D9299"/>
<path transform="translate(443,516)" d="m0 0 1 2-1 6-9 20-4 4-4-1-2 5-1-2 7-20 3-7 6-1 1-3h2z" fill="#8D9299"/>
<path transform="translate(714,530)" d="m0 0 5 1 5 6-1 7-5 4-7-1-4-5v-6l4-5z" fill="#BBC0C5"/>
<path transform="translate(655,961)" d="m0 0 7 1 1 1v23l-1 1h-6l-2-1v-24z" fill="#021225"/>
<path transform="translate(544,876)" d="m0 0 4 1 16 10 11 6-2 1-1 3-1-1-1 2-6-2-18-12-3-4z" fill="#E1E3E5"/>
<path transform="translate(453,773)" d="m0 0 4 4 12 20 10 14 14 17 9 11-2 1v-2l-4-2-6-7-4-2-12-16-11-18-10-18z" fill="#B3B8BD"/>
<path transform="translate(901,762)" d="m0 0h30l48 1 7 1v1l-20 1-37 1h-22v-1l18-1-6-1-18-1z" fill="#B4B9BD"/>
<path transform="translate(703,350)" d="m0 0h6l-3 3h-2l4 7h7l-1-7-2-3h8l1 7-2 3 12-2v5l-1 1-24-1-5-3-1-6 1-3z" fill="#021225"/>
<path transform="translate(710,523)" d="m0 0h11l5 3 5 6 1 3v9l-4 7-7 4h-12l-5-3-5-6-1-3v-7l4-8zm1 2-7 4-3 4-1 3v7l4 6 6 4h12l7-6 1-3v-9l-3-6-6-4z" fill="#021225"/>
<path transform="translate(108,1144)" d="m0 0 7 1 3 4-1 7-4 3-7-1-3-4 1-7z" fill="#8D9299"/>
<path transform="translate(715,453)" d="m0 0h1l1 48-1 11 7 1 1 2-17 1 3-3 3-1 1-57z" fill="#021225"/>
<path transform="translate(517,435)" d="m0 0 7 1 2 3 1 7-2 4h-7v2l-4-1-1-2 1-2h9l1-2-5-1-6-1-2 5h-2v-6l5-4 5 1 3 1-5-3z" fill="#D1D4D6"/>
<path transform="translate(720,392)" d="m0 0 6 2 2 2v6l-7 8-4 1v-11z" fill="#E8EAEA"/>
<path transform="translate(913,435)" d="m0 0h5l-2 4-2 6-2-1v-3h-3l3 5 4 2v4l7-1 2-2 1-5-6 1-4 2 2-4 4-3 5 2 1 2v6l-5 4-5 1-8-7-2-2v-7z" fill="#AAAFB5"/>
<path transform="translate(481,541)" d="m0 0h14l4 2 43 1v1h-44l-29-1 1-2z" fill="#B7BCC0"/>
<path transform="translate(967,772)" d="m0 0 1 2-10 19-10 15-5 3-3 2 2-4 12-16 12-20z" fill="#B1B6BB"/>
<path transform="translate(914,540)" d="m0 0h28l10 1 5 2v1h-30l-1-2-12-1z" fill="#D4D9DC"/>
<path transform="translate(714,530)" d="m0 0 5 1 5 6-1 7-5 4-7-1-4-5v-6l4-5zm0 2-5 4 1 7 2 2h6l3-3 1-4-4-5z" fill="#021225"/>
<path transform="translate(800,361)" d="m0 0 8 2 1 5-3 1-3-3v2l3 2-2 5-3 4h-2l1-9-4-2 1-5z" fill="#CDD0D3"/>
<path transform="translate(628,360)" d="m0 0 8 1 2 8v6l-3-3-3-9-4 1-1 5 1 8-3-3-2-9z" fill="#CCD0D2"/>
<path transform="translate(710,759)" d="m0 0 5 2 7 2-1 4-9 2-5-1v-4z" fill="#DBDEDF"/>
<path transform="translate(446,763)" d="m0 0h37v2h5v1h-21l-21-1z" fill="#9FA4AA"/>
<path transform="translate(941,763)" d="m0 0h38l7 1v1l-20 1h-23z" fill="#8D9299"/>
<path transform="translate(704,394)" d="m0 0 2 2 1 7 6 7-1 3-6-4-6-8 1-4z" fill="#D6D8DA"/>
<path transform="translate(710,351)" d="m0 0 4 1 1 3v5l-7 1-4-5v-3z" fill="#D7DADC"/>
<path transform="translate(715,446)" d="m0 0h1l2 8-1 40h-1l-1-39-2 4h-1v-6z" fill="#A6ABB1"/>
<path transform="translate(479,812)" d="m0 0 5 5 18 22-2 1v-2l-4-2-8-10v-2h-2l-7-9z" fill="#8D9299"/>
<path transform="translate(705,349)" d="m0 0h21l4 3v2h-6l-1-3h-2l-1 4v-5l-12 2z" fill="#778089"/>
<path transform="translate(544,876)" d="m0 0 4 1 6 4-4 3v3l-5-4-2-5z" fill="#D9DCDE"/>
<path transform="translate(453,773)" d="m0 0 4 4 10 17-3 1-11-20z" fill="#A6ABB0"/>
<path transform="translate(721,351)" d="m0 0h2l1 2 7 3v1h-6l-1 3-3 1-2-1z" fill="#E5E7E8"/>
<path transform="translate(732,349)" d="m0 0h1l1 16-4-2 1-5-6 1v-2l4-1-2-2 4-1z" fill="#ADB2B7"/>
<path transform="translate(714,535)" d="m0 0 4 1 2 4-2 2h-6v-4z" fill="#79818A"/>
<path transform="translate(913,435)" d="m0 0h5l-2 4-2 6-2-1v-4h-3l2-4z" fill="#C5C9CD"/>
<path transform="translate(922,440)" d="m0 0 5 2 1 7h-2v-5l-6 1-4 2 2-4z" fill="#B4B8BD"/>
<path transform="translate(514,447)" d="m0 0h7l4 1v2h-7v2l-4-1-1-2z" fill="#C0C4C8"/>
<path transform="translate(939,813)" d="m0 0v3l-4 6-9 9-2-1 10-11z" fill="#8D9299"/>
<path transform="translate(723,513)" d="m0 0h2v2l5-1-1 5-6-2-11-1v-1l11-1z" fill="#A8ADB2"/>
<path transform="translate(867,878)" d="m0 0 4 1 1 4-6 4 2-7-4 1z" fill="#D1D5D8"/>
<path transform="translate(64,1191)" d="m0 0h5l-1 3 3 1-4 5-2-1 2-2-3-2 1-2-4-1z" fill="#8D9299"/>
<path transform="translate(480,816)" d="m0 0 5 5 1 3h2l1 5-5-5-4-5z" fill="#B9BEC3"/>
<path transform="translate(517,435)" d="m0 0 7 1 2 3-1 4-4-4-4-2z" fill="#B4B8BC"/>
<path transform="translate(791,938)" d="m0 0h2l-1 9-1 5h-1v-7l-2 2 1-5z" fill="#BCC0C4"/>
<path transform="translate(713,381)" d="m0 0h4l1 4-3 5h-1z" fill="#021225"/>
<path transform="translate(85,1126)" d="m0 0 3 3 1 3-6 1-1 2-2-3 1-3 4 2-1-4z" fill="#8D9299"/>
<path transform="translate(725,347)" d="m0 0h6l1 1v6l-6-4z" fill="#E1E3E4"/>
<path transform="translate(133,1209)" d="m0 0 3 3-1 3-4-2v5l-4-5 4-2h2z" fill="#8D9299"/>
<path transform="translate(623,365)" d="m0 0 1 2h2l2 6-1 4-3-5z" fill="#BDC1C5"/>
</svg>
